<svg width="28" height="29" viewBox="0 0 28 29" fill="none" xmlns="http://www.w3.org/2000/svg">
<circle cx="14" cy="14.1045" r="13.5" stroke="#D4D4D8"/>
<path d="M20.2071 11.0876C19.7881 11.2738 19.3458 11.3902 18.8802 11.4601C19.3458 11.1807 19.7183 10.7384 19.8812 10.203C19.4389 10.4591 18.9501 10.6453 18.4146 10.7617C17.9956 10.3194 17.3904 10.04 16.7386 10.04C15.4815 10.04 14.4572 11.0643 14.4572 12.3214C14.4572 12.5076 14.4805 12.6706 14.5271 12.8335C12.6415 12.7404 10.9421 11.8325 9.80141 10.4358C9.61518 10.785 9.49878 11.1574 9.49878 11.5765C9.49878 12.3679 9.89453 13.0663 10.5231 13.4853C10.1506 13.4621 9.80141 13.3689 9.4755 13.206V13.2293C9.4755 14.3467 10.267 15.2778 11.3145 15.4873C11.1283 15.5339 10.9188 15.5572 10.7093 15.5572C10.5696 15.5572 10.4067 15.5339 10.267 15.5106C10.5696 16.4185 11.4077 17.0936 12.4087 17.0936C11.6172 17.6988 10.6395 18.0713 9.56862 18.0713C9.38239 18.0713 9.19616 18.0713 9.0332 18.048C10.0575 18.6998 11.2447 19.0723 12.5483 19.0723C16.7618 19.0723 19.0665 15.5804 19.0665 12.5542C19.0665 12.4611 19.0665 12.3447 19.0665 12.2515C19.5088 11.9489 19.9045 11.5532 20.2071 11.0876Z" fill="white"/>
</svg>
