<svg width="28" height="29" viewBox="0 0 28 29" fill="none" xmlns="http://www.w3.org/2000/svg">
<circle cx="14" cy="14.1045" r="13.5" stroke="#D4D4D8"/>
<path d="M14.0008 8.5517C15.8095 8.5517 16.0237 8.55847 16.7382 8.59105C17.1678 8.59631 17.5933 8.6752 17.9962 8.82428C18.2884 8.93697 18.5538 9.1096 18.7753 9.33105C18.9967 9.55251 19.1694 9.81788 19.282 10.1101C19.4311 10.513 19.51 10.9385 19.5153 11.3682C19.5475 12.0827 19.5546 12.2969 19.5546 14.1056C19.5546 15.9143 19.5479 16.1285 19.5153 16.843C19.51 17.2726 19.4311 17.6981 19.282 18.1011C19.1694 18.3933 18.9967 18.6586 18.7753 18.8801C18.5538 19.1015 18.2884 19.2742 17.9962 19.3869C17.5933 19.5359 17.1678 19.6148 16.7382 19.6201C16.024 19.6523 15.8098 19.6594 14.0008 19.6594C12.1917 19.6594 11.9775 19.6527 11.2633 19.6201C10.8337 19.6148 10.4082 19.5359 10.0053 19.3869C9.71307 19.2742 9.44769 19.1015 9.22624 18.8801C9.00479 18.6586 8.83216 18.3933 8.71947 18.1011C8.57038 17.6981 8.4915 17.2726 8.48624 16.843C8.45398 16.1285 8.44689 15.9143 8.44689 14.1056C8.44689 12.2969 8.45366 12.0827 8.48624 11.3682C8.4915 10.9385 8.57038 10.513 8.71947 10.1101C8.83216 9.81788 9.00479 9.55251 9.22624 9.33105C9.44769 9.1096 9.71307 8.93697 10.0053 8.82428C10.4082 8.6752 10.8337 8.59631 11.2633 8.59105C11.9779 8.5588 12.192 8.5517 14.0008 8.5517ZM14.0008 7.33105C12.162 7.33105 11.9304 7.3388 11.2079 7.3717C10.6456 7.38288 10.0893 7.48934 9.56269 7.68654C9.11092 7.85675 8.70172 8.12349 8.36366 8.46815C8.01869 8.80634 7.75172 9.21576 7.5814 9.66783C7.3842 10.1945 7.27775 10.7507 7.26656 11.313C7.2343 12.0349 7.22656 12.2665 7.22656 14.1052C7.22656 15.944 7.2343 16.1756 7.26721 16.8982C7.27839 17.4604 7.38485 18.0167 7.58205 18.5433C7.75218 18.9953 8.01892 19.4047 8.36366 19.743C8.70191 20.0877 9.11133 20.3545 9.56334 20.5246C10.09 20.7218 10.6463 20.8283 11.2085 20.8394C11.9311 20.8717 12.1617 20.8801 14.0014 20.8801C15.8411 20.8801 16.0717 20.8723 16.7943 20.8394C17.3565 20.8283 17.9128 20.7218 18.4395 20.5246C18.8893 20.3502 19.2978 20.0839 19.6389 19.7426C19.98 19.4013 20.246 18.9926 20.4201 18.5427C20.6173 18.016 20.7238 17.4597 20.735 16.8975C20.7672 16.1756 20.775 15.944 20.775 14.1052C20.775 12.2665 20.7672 12.0349 20.7343 11.3123C20.7231 10.7501 20.6167 10.1938 20.4195 9.66718C20.2493 9.21518 19.9826 8.80576 19.6379 8.46751C19.2996 8.12277 18.8902 7.85602 18.4382 7.68589C17.9115 7.48869 17.3553 7.38224 16.793 7.37105C16.0711 7.3388 15.8395 7.33105 14.0008 7.33105Z" fill="white"/>
<path d="M14.0021 10.6279C13.3141 10.6279 12.6416 10.832 12.0695 11.2142C11.4974 11.5964 11.0515 12.1397 10.7882 12.7754C10.5249 13.411 10.4561 14.1105 10.5903 14.7853C10.7245 15.4601 11.0558 16.08 11.5423 16.5665C12.0288 17.053 12.6487 17.3843 13.3235 17.5185C13.9983 17.6527 14.6977 17.5838 15.3334 17.3205C15.969 17.0573 16.5123 16.6114 16.8946 16.0393C17.2768 15.4672 17.4809 14.7947 17.4809 14.1066C17.4809 13.184 17.1144 12.2992 16.462 11.6468C15.8096 10.9944 14.9248 10.6279 14.0021 10.6279ZM14.0021 16.3647C13.5555 16.3647 13.119 16.2323 12.7476 15.9842C12.3763 15.736 12.0869 15.3834 11.916 14.9708C11.7451 14.5582 11.7003 14.1041 11.7875 13.6661C11.8746 13.2281 12.0897 12.8257 12.4055 12.5099C12.7213 12.1942 13.1236 11.9791 13.5616 11.892C13.9996 11.8048 14.4537 11.8496 14.8663 12.0205C15.2789 12.1914 15.6315 12.4808 15.8797 12.8521C16.1278 13.2235 16.2602 13.66 16.2602 14.1066C16.2602 14.7055 16.0223 15.2799 15.5988 15.7033C15.1754 16.1268 14.601 16.3647 14.0021 16.3647Z" fill="white"/>
<path d="M17.6176 11.3026C18.0665 11.3026 18.4305 10.9386 18.4305 10.4897C18.4305 10.0407 18.0665 9.67676 17.6176 9.67676C17.1686 9.67676 16.8047 10.0407 16.8047 10.4897C16.8047 10.9386 17.1686 11.3026 17.6176 11.3026Z" fill="white"/>
</svg>
