<svg width="28" height="29" viewBox="0 0 28 29" fill="none" xmlns="http://www.w3.org/2000/svg">
<circle cx="14" cy="14.1045" r="13.5" stroke="#D4D4D8"/>
<path fill-rule="evenodd" clip-rule="evenodd" d="M14.6068 7.33105C11.0159 7.33105 8.12695 10.22 8.12695 13.811C8.12695 16.6729 9.98992 19.1029 12.5549 19.9669C12.8789 20.0209 12.9869 19.8319 12.9869 19.6429C12.9869 19.4809 12.9869 19.0759 12.9869 18.5359C11.1779 18.9409 10.7999 17.6719 10.7999 17.6719C10.5029 16.9159 10.0709 16.7269 10.0709 16.7269C9.47693 16.3219 10.1249 16.3219 10.1249 16.3219C10.7729 16.3759 11.1239 16.9969 11.1239 16.9969C11.6909 17.9959 12.6359 17.6989 13.0139 17.5369C13.0679 17.1049 13.2299 16.8349 13.4189 16.6729C11.9879 16.5109 10.4759 15.9439 10.4759 13.46C10.4759 12.758 10.7189 12.164 11.1509 11.732C11.0969 11.57 10.8539 10.922 11.2049 10.004C11.2049 10.004 11.7449 9.84201 12.9869 10.679C13.4999 10.544 14.0669 10.463 14.6068 10.463C15.1468 10.463 15.7138 10.544 16.2268 10.679C17.4688 9.84201 18.0088 10.004 18.0088 10.004C18.3598 10.895 18.1438 11.543 18.0628 11.732C18.4678 12.191 18.7378 12.758 18.7378 13.46C18.7378 15.9439 17.2258 16.4839 15.7678 16.6459C16.0108 16.8349 16.1998 17.2399 16.1998 17.8339C16.1998 18.6979 16.1998 19.3999 16.1998 19.6159C16.1998 19.7779 16.3078 19.9939 16.6588 19.9399C19.2238 19.1029 21.0867 16.6729 21.0867 13.811C21.0867 10.22 18.1978 7.33105 14.6068 7.33105Z" fill="white"/>
</svg>
