<svg width="167" height="30" viewBox="0 0 167 30" fill="none" xmlns="http://www.w3.org/2000/svg">
<path d="M32.9466 0.271973L26.9899 23.4137L50.1316 29.3705L56.0884 6.22873L32.9466 0.271973ZM43.226 17.6678L38.6925 16.5081L39.8522 11.9746L44.3857 13.1343L43.226 17.6678Z" fill="white"/>
<path d="M15.6035 2.85498C21.613 2.85498 24.3015 6.43958 24.3015 10.0242C24.3015 12.2382 23.3526 14.0832 21.5603 15.2956C24.1433 18.1949 25.672 22.1485 26.1992 26.7347H15.2345C14.7601 20.409 13.4422 17.8787 10.5956 17.8787V26.7347H0V2.85498H15.6035ZM10.5956 12.3963H10.8592C12.8097 12.3963 13.7058 11.711 13.7058 10.1296C13.7058 9.12802 13.1787 7.75744 11.2282 7.75744H10.5956V12.3963Z" fill="white"/>
<path d="M73.5369 2.85498C81.286 2.85498 82.8147 6.75586 82.8147 9.54974C82.8147 11.5002 82.1294 13.2925 79.7045 14.6631C82.7092 16.2445 83.4472 18.0895 83.4472 20.1454C83.4472 23.8354 80.8642 26.7347 75.2765 26.7347H58.6187V2.85498H73.5369ZM69.1616 12.3436H69.4252C71.7446 12.3436 72.588 11.711 72.588 10.0242C72.588 8.70631 71.9555 7.70473 69.7942 7.70473H69.1616V12.3436ZM69.1616 21.516H69.4779C71.9027 21.516 72.8516 20.8307 72.8516 19.0384C72.8516 17.4569 72.1136 16.3499 69.8996 16.3499H69.1616V21.516Z" fill="white"/>
<path d="M86.6628 2.85498H97.2585V20.7252H106.536V26.7347H86.6628V2.85498Z" fill="white"/>
<path d="M109.752 2.85498V26.7347H133.632V2.85498H109.752ZM124.037 17.1407H119.346V12.5018H123.985V17.1407H124.037Z" fill="white"/>
<path d="M136.478 2.85498H148.023L151.555 7.2303L154.928 2.85498H166.42L157.353 14.6103L167 26.7874H155.403L151.607 22.0431L147.97 26.7874H136.478L145.809 14.7158L136.478 2.85498Z" fill="white"/>
</svg>
