<svg width="147" height="32" viewBox="0 0 147 32" fill="none" xmlns="http://www.w3.org/2000/svg">
<path d="M61.3841 15.5123V15.5107C61.0631 14.3233 60.76 13.268 60.4867 12.4741C59.4305 9.4331 58.3338 6.08341 55.0801 6.05416C55.0801 6.05416 53.2106 5.73128 51.2552 6.01963C51.2552 6.01963 45.0764 7.20779 41.5116 9.82186C44.6009 9.82186 48.6409 9.34691 50.0668 10.2973C51.917 11.5308 52.7148 12.728 52.7148 15.3465C52.7148 15.4034 52.713 15.4583 52.7093 15.512C52.6748 16.0123 52.4916 16.371 52.3769 16.8673H51.3632C50.3915 16.1069 49.5741 15.8563 48.3219 15.5157C48.3165 15.5137 48.3107 15.5126 48.3048 15.5126V15.511C46.158 14.9285 44.7026 14.8036 42.5941 15.5115H42.5901C42.5859 15.5126 42.5817 15.5144 42.5775 15.5157C39.6843 16.4896 37.3994 18.3596 36.7049 21.028C36.536 21.6769 36.4614 22.3746 36.4951 23.1186C36.6598 26.7097 39.1653 28.9129 42.5775 30.0454C44.7037 30.7513 46.1217 30.4674 48.3219 30.0454C51.6795 29.4015 53.0105 27.4264 56.0935 25.9904C56.0935 27.5534 56.1359 30.0454 56.1359 30.0454H65.2172V27.6799C64.509 26.8882 63.6671 24.1033 62.8387 21.028C62.3382 19.1696 61.8422 17.2055 61.3841 15.5123ZM54.4046 23.1183C54.2082 25.3115 52.2119 26.7645 50.0117 26.6662C47.8235 26.5685 45.9556 24.9704 45.9567 22.7805C45.9543 22.1699 46.1036 21.5684 46.3913 21.0298C47.0399 19.8198 48.3459 19.0122 49.8427 18.8941C51.5032 18.7639 53.1373 19.6664 53.9272 21.0277C54.287 21.6471 54.4718 22.3622 54.4046 23.1183ZM119.143 15.5123C118.375 12.0693 116.831 9.66847 113.538 8.08126C112.059 7.40547 111.391 6.5639 109.821 6.05389C107.189 5.19888 105.378 5.26635 102.724 6.05389C97.9318 7.47663 95.0863 10.7288 94.0692 15.5123V15.5134C94.0212 15.7383 93.9778 15.9643 93.939 16.191C93.6485 17.8794 93.6441 18.8962 93.939 20.5839C93.9656 20.7346 93.9928 20.8817 94.0212 21.0277C94.4748 23.3332 95.1928 24.7709 96.7832 26.6446C100.23 30.7065 104.663 32.0583 109.821 30.7212C114.908 29.4016 118.161 26.1027 119.198 21.028H119.198C119.227 20.8812 119.256 20.7333 119.282 20.5841C119.578 18.8968 119.598 17.8752 119.282 16.1912C119.24 15.9642 119.193 15.7378 119.143 15.5123ZM109.804 29.259C106.536 30.3939 105.522 25.6755 103.989 21.0269C103.917 20.8087 103.843 20.5899 103.769 20.3728C103.583 19.8314 102.817 17.7935 102.228 15.5128H102.228C101.382 12.2346 100.906 8.45869 103.056 7.92127C106.095 7.16114 107.465 11.6252 108.546 15.5128C108.818 16.4849 109.071 17.4237 109.328 18.2339C109.659 19.1493 109.998 20.095 110.304 21.0301H110.304C111.539 24.8028 112.25 28.409 109.804 29.259ZM89.0095 6.05416C87.6099 5.67594 86.7296 5.86201 85.2929 6.05416C82.5397 6.4221 81.4912 8.75731 78.7037 8.75731C77.0561 8.75731 77.0264 6.62821 75.4932 6.05416C73.8891 5.45322 71.1005 6.05416 71.1005 6.05416C68.6362 7.33325 66.8344 8.2083 64.3427 9.77073C66.2011 9.77073 69.0734 9.39541 69.0734 11.4742V30.0454H77.5208V12.8123C77.5208 11.4605 78.7037 10.4468 80.0553 10.4468C81.4069 10.4468 82.5892 11.4605 82.5892 12.8123V30.0454H91.0371V8.08152C90.8365 7.19409 90.141 6.35963 89.0095 6.05416ZM144.973 6.05416C143.573 5.67594 142.693 5.86201 141.256 6.05416C138.503 6.4221 137.454 8.75731 134.667 8.75731C133.02 8.75731 132.99 6.62821 131.457 6.05416C129.852 5.45322 127.064 6.05416 127.064 6.05416C124.6 7.33325 122.798 8.2083 120.305 9.77073C122.164 9.77073 125.036 9.39541 125.036 11.4742V30.0454H133.484V12.8123C133.484 11.4605 134.667 10.4468 136.018 10.4468C137.37 10.4468 138.552 11.4605 138.552 12.8123V30.0454H147V8.08152C146.8 7.19409 146.104 6.35963 144.973 6.05416ZM35.4819 8.01273C34.0484 6.11688 33.0395 5.14669 31.0891 3.78905C27.975 1.62147 25.7175 0.974407 21.9656 0.410108C19.2288 -0.00158583 17.6078 0.00684837 14.8696 0.410108C12.1469 0.810468 10.5078 1.08484 8.11119 2.43747C2.90466 5.37573 0.0860657 9.46894 0.00146037 15.4467C0.000933232 15.468 0.000933233 15.4894 0.000669664 15.5112V15.512C-0.0188344 17.5423 0.388378 19.382 1.13401 21.0275H1.1348C3.40439 26.0295 8.80859 29.2244 14.8693 30.483C17.8374 31.0995 19.6502 30.9732 22.6409 30.483C25.8077 29.9637 27.6983 29.4912 30.4127 27.7798C32.3473 26.5598 33.3589 25.6649 34.8056 23.894L33.7922 22.7114C32.4622 24.2823 31.5224 25.0659 29.7372 26.0901C27.1311 27.5864 25.3024 28.3072 22.3033 28.1177C17.698 27.8267 14.0004 24.9762 12.2505 21.0275H12.25C11.5415 19.4279 11.1525 17.6477 11.1525 15.784C11.1525 15.6923 11.1536 15.6011 11.1554 15.512V15.5097C11.3014 8.45579 17.073 2.77484 24.162 2.77484C26.8229 2.77484 28.8503 3.36629 30.4133 5.478C27.9212 8.56122 25.0067 14.2638 25.0067 14.2638L35.4819 8.01273Z" fill="white"/>
</svg>
