<svg width="147" height="24" viewBox="0 0 147 24" fill="none" xmlns="http://www.w3.org/2000/svg">
<path fill-rule="evenodd" clip-rule="evenodd" d="M0 23.1563L5.12059 0.104492H14.2619L14.6792 12.9821L20.8328 0.104492H29.9958L24.8543 23.1563H18.2173L20.9641 10.7622L14.7896 23.1563H10.0204L9.77863 10.7622L6.70226 23.1563H0ZM30.7879 3.8617H36.9624L37.7972 0.104492H31.6001L30.7879 3.8617ZM32.6774 23.1789L26.4586 23.1563L30.2601 6.08157H36.479L32.6774 23.1789ZM56.2353 6.08157H61.795L61.3115 8.19104C62.081 7.24588 63.0036 6.65285 64.1688 6.25722C65.1039 5.94572 66.0838 5.78975 67.0695 5.79552L65.6409 11.3552C65.2896 11.3552 60.9828 10.5196 59.642 17.0906L58.2578 23.1772H52.3894L56.2353 6.08157Z" fill="white"/>
<path fill-rule="evenodd" clip-rule="evenodd" d="M52.9832 16.8498C52.9832 16.9811 51.0277 23.8373 42.4351 23.6625C30.9192 23.4208 33.9086 4.96171 46.9835 5.62081C54.411 5.99386 54.0379 12.1692 53.9719 12.4335H47.5548C47.6426 12.1918 47.8626 9.64234 45.8184 9.68667C42.0169 9.79707 39.3135 19.2236 43.5107 19.3122C45.4445 19.3783 46.3462 17.1367 46.5218 16.8515H52.9832V16.8498ZM108.119 23.7285C95.6157 23.2008 99.3729 4.78523 112.207 5.40084C124.272 5.99386 120.842 24.2338 108.119 23.7285ZM111.789 9.42153C107.636 8.58677 104.537 18.5636 108.494 19.3766C112.888 20.3001 115.834 10.2354 111.789 9.42153Z" fill="white"/>
<path fill-rule="evenodd" clip-rule="evenodd" d="M131.546 3.55494C129.83 3.55494 129.503 4.21404 129.217 5.5105L129.105 6.08177H132.732L133.634 1.95068H139.302L138.423 6.08177H141.346L140.49 10.0155H137.566L135.961 17.509C135.896 17.9264 135.742 18.2994 135.896 18.7611C136.138 19.442 138.577 19.1576 138.577 19.1576L137.633 23.0695C137.633 23.0695 132.666 23.6408 130.995 22.4757C130.248 21.9705 129.435 20.9157 129.941 18.6524L131.852 10.0381L128.446 10.0163L125.568 23.1574H119.458L122.315 10.0163H119.172L120.051 6.08261H123.106C123.654 3.88532 124.138 2.39064 125.5 1.24808C127.369 -0.268355 132.226 0.324673 132.226 0.324673L131.546 3.55494ZM76.695 17.3116L88.297 17.2899C88.297 17.2899 87.3084 19.861 90.9568 19.8836C93.4837 19.8836 94.4723 17.0046 91.0664 16.4116C89.5065 16.1255 83.4633 15.1143 84.145 10.4554C84.7171 6.63214 88.6935 5.29136 93.0454 5.35743C101.946 5.467 100.276 10.698 100.385 11.0493H94.4514C94.4514 11.0493 95.0888 8.85201 92.408 8.85201C89.969 8.85201 89.3743 11.0493 92.1872 11.6423C95.6166 12.3901 99.5503 12.5657 99.7686 16.9829C99.8338 18.2141 99.1103 23.9704 90.143 23.7956C81.9243 23.6199 81.3539 19.7523 81.573 17.9506C80.0783 21.0931 76.342 23.8842 71.3544 23.7086C58.8507 23.3129 62.6523 4.78699 75.4638 5.42518C81.2878 5.7104 83.5077 10.1276 82.8034 14.4786C82.6938 15.2481 82.6286 15.3577 82.4078 15.4238L76.695 17.3116ZM75.0021 9.39987C70.8919 8.58687 67.8163 18.5194 71.7492 19.355C76.102 20.2567 79.0244 10.2137 75.0021 9.39987ZM144.775 6.06003C147.742 6.06003 147.742 10.4772 144.775 10.4772C141.808 10.4772 141.808 6.06003 144.775 6.06003ZM144.775 6.45565C142.292 6.45565 142.292 10.0598 144.775 10.0598C147.279 10.0598 147.279 6.45565 144.775 6.45565ZM145.17 8.52079L145.61 9.39987H145.082L144.731 8.52079H144.422L144.291 9.46594H143.829L144.203 7.11476H145.279C145.279 7.11476 145.872 7.26866 145.828 7.83993C145.764 8.52078 145.215 8.52079 145.17 8.52079ZM145.059 7.42257H144.622L144.511 8.19207H144.95C144.95 8.19207 145.389 8.25815 145.433 7.81819C145.433 7.42256 145.059 7.42257 145.059 7.42257Z" fill="white"/>
</svg>
