<svg width="99" height="33" viewBox="0 0 99 33" fill="none" xmlns="http://www.w3.org/2000/svg">
<path fill-rule="evenodd" clip-rule="evenodd" d="M99 10.7223V26.8212L90.0865 32.9871H84.6068V30.2465L80.4959 32.9871H75.7003V30.2465L72.6173 32.9871H63.7115L60.9716 30.2465L60.2862 32.9871L52.4251 32.966L49.3253 30.2465L48.9829 32.9871L40.0771 32.966L39.7347 30.2465L37.3372 32.966L23.6358 32.9871L20.8952 31.6168V32.9871H13.359L5.13804 27.849L0 22.711V0.104492H10.6185L15.7565 5.24253H39.0492V0.104492H58.2318V5.24253H63.0274V7.9831L65.768 5.24253H71.5915L76.7296 0.104492H87.6904V5.24253H93.514L99 10.7223ZM13.359 7.6393H8.56339V2.50126H2.39747V21.6838L6.16522 25.794H13.359V19.2857H8.56339V13.8059H13.359V7.6393ZM39.0492 7.6393H32.8833V19.2864H30.4858V7.6393H24.6623V19.2864H22.2648V7.6393H15.7565V25.794H34.9391L39.0492 21.6838V7.6393ZM47.2702 7.6393H41.4467V25.794H47.2702V7.6393ZM47.2702 2.50126H41.4467V5.24183H47.2702V2.50126ZM60.6293 7.6393H55.8336V2.50126H49.6684V21.6838L53.4361 25.794H60.6278V19.2857H55.8322V13.8059H60.6278L60.6293 7.6393ZM76.3858 7.6393H66.7952L63.0274 11.4071V21.6838L67.1376 25.794H76.3851V19.2857H69.5343V13.8059H76.3851L76.3858 7.6393ZM96.5955 11.4071L92.4854 7.6393H85.2923V2.50126H78.7839V25.794H85.2923V13.8045H90.0879V25.7933H96.5962L96.5955 11.4071Z" fill="white"/>
</svg>
