<svg width="147" height="30" viewBox="0 0 147 30" fill="none" xmlns="http://www.w3.org/2000/svg">
<path d="M140.76 3.7771C140.76 2.11763 142.101 0.7574 143.743 0.7574C144.537 0.7574 145.276 1.08385 145.851 1.62794C146.425 2.19924 146.726 2.96097 146.726 3.7499C146.726 4.53883 146.425 5.30055 145.851 5.87185C145.276 6.44314 144.537 6.7696 143.743 6.7696C142.101 6.7696 140.76 5.43657 140.76 3.7771ZM140.514 3.7771C140.514 5.5726 141.964 7.04164 143.77 7.04164C144.646 7.04164 145.44 6.71519 146.042 6.08948C146.644 5.46378 147 4.64764 147 3.7771C147 2.90656 146.672 2.09042 146.042 1.46472C145.413 0.839014 144.619 0.51256 143.77 0.51256C141.964 0.51256 140.514 1.9816 140.514 3.7771ZM142.539 5.70862H143.004V4.18517H144.044C144.208 4.18517 144.345 4.18517 144.455 4.23958C144.592 4.32119 144.674 4.48442 144.701 4.70205L144.756 5.30055V5.5726C144.783 5.62701 144.783 5.65421 144.81 5.68142H145.385V5.5998C145.303 5.5726 145.276 5.49098 145.248 5.38217C145.221 5.32776 145.221 5.21894 145.221 5.08292L145.194 4.62044C145.194 4.4028 145.139 4.26678 145.084 4.18517C145.002 4.10355 144.893 4.02194 144.756 3.96753C144.92 3.88592 145.029 3.7771 145.112 3.64108C145.194 3.50506 145.221 3.34183 145.221 3.12419C145.221 2.71612 145.057 2.44408 144.756 2.28085C144.592 2.19924 144.373 2.17203 144.126 2.17203H142.566L142.539 5.70862ZM142.977 3.7771V2.5529H144.072C144.236 2.5529 144.373 2.5801 144.455 2.63451C144.619 2.71612 144.701 2.90656 144.701 3.1514C144.701 3.39624 144.646 3.55946 144.509 3.64108C144.4 3.72269 144.236 3.7771 144.017 3.7771H142.977ZM13.3014 8.26584L0 29.0501H9.08658L21.8954 9.1908L13.3014 8.26584ZM68.0672 7.80337V0.104492H42.2033C38.6727 0.322128 37.14 2.00881 35.9905 3.20581C34.7589 4.48442 34.0747 7.17766 34.0747 7.17766V0.158901H20.308C19.2679 0.158901 18.2826 0.594173 17.5437 1.62794C16.7773 2.63451 13.6299 7.80337 13.6299 7.80337H68.0672ZM138.406 7.80337V0.104492H110.736C107.233 0.322128 105.673 2.00881 104.523 3.20581C103.291 4.48442 102.607 7.17766 102.607 7.17766V7.80337H138.406ZM77.1538 0.131697H69.4083V7.80337H77.1538V0.131697ZM102.525 0.131697H94.8069V7.80337H102.525V0.131697ZM102.525 10.5782L94.9164 10.1157V19.0116C94.9164 19.0116 94.889 21.5688 92.3984 21.5688H79.3707C79.3707 21.5688 77.1538 21.3784 77.1538 19.0388V8.91875L69.4904 8.37466V22.0041C70.722 28.5332 76.6611 29.0501 76.6611 29.0501C76.6611 29.0501 77.2633 29.0773 77.3727 29.1045H95.0259C95.0259 29.1045 102.58 28.506 102.58 21.2696L102.525 10.5782ZM26.1923 29.0501H62.3744C68.6693 27.7987 69.3262 22.0857 69.3262 22.0857C69.6273 20.3991 69.4631 19.0116 69.4631 19.0116C69.2715 17.869 67.0819 12.809 62.3744 12.3737C59.5554 12.1017 34.4578 10.1157 34.4578 10.1157C34.9505 12.6186 36.0726 13.8972 36.839 14.6045C38.5906 16.264 41.3549 16.7536 41.3549 16.7536L60.7049 18.3587C61.307 18.3859 62.4292 18.5491 62.4018 20.0182C62.4018 20.2086 62.2376 21.4872 60.8144 21.4872H33.7462V10.0613L26.2197 9.51725C26.1923 9.51725 26.1923 29.0501 26.1923 29.0501ZM102.58 29.1045H130.277C137.229 28.6964 138.214 22.1401 138.214 22.1401C138.461 20.4263 138.269 19.0116 138.269 19.0116C138.078 17.461 135.861 12.7818 131.126 12.3193C128.334 12.0473 103.072 10.5782 103.072 10.5782C103.811 13.1627 104.824 13.9516 105.59 14.6589C107.342 16.3456 109.942 16.7264 109.942 16.7264C110.599 16.7809 129.484 18.3587 129.484 18.3587C130.086 18.3859 131.317 18.4403 131.317 19.9094C131.317 20.3446 131.098 20.8071 130.825 21.052C130.825 21.052 130.168 21.4056 129.538 21.4056H102.662L102.58 29.1045Z" fill="white"/>
</svg>
