<svg width="64" height="64" viewBox="0 0 64 64" fill="none" xmlns="http://www.w3.org/2000/svg">
<g filter="url(#filter0_d_6_316)">
<path d="M50.9472 1.38369L52.0816 1.54826C53.8448 1.82744 55.8197 2.29471 57.0334 3.50841C58.2471 4.72211 58.7173 6.69988 58.9965 8.46313L59.161 9.59455C59.5313 12.2688 59.6283 15.7747 58.9965 19.6656C57.7504 27.3446 53.6627 36.5046 43.3976 43.6017C43.3527 44.1265 43.336 44.6533 43.3476 45.1798L43.3976 46.7756C43.427 47.8394 43.4094 48.9003 43.1155 49.92C42.5571 51.8596 40.5676 53.1379 38.7074 54.0548L37.7964 54.4868L36.6209 55.004L35.8186 55.3273C33.7409 56.1208 31.2341 56.6762 29.5943 55.0334C28.8508 54.2899 28.507 53.279 28.2307 52.2681L28.0955 51.7626C27.6253 49.9788 27.0934 48.2067 26.4293 46.4905C26.2459 46.7134 26.0517 46.9273 25.8474 47.1311C24.2458 48.7298 22.0741 49.535 19.9023 50.1581L18.4594 50.5548L17.0194 50.9368L15.6147 51.2895L14.3451 51.5834L12.8258 51.9066L11.8766 52.0918C11.4032 52.1794 10.9156 52.1506 10.4558 52.0078C9.99601 51.865 9.57787 51.6124 9.23744 51.272C8.897 50.9316 8.64449 50.5134 8.50168 50.0537C8.35886 49.5939 8.33004 49.1063 8.41769 48.6329L8.7439 47.0136L9.12299 45.315L9.4874 43.8162L10.1486 41.333C10.804 38.9232 11.6004 36.44 13.3812 34.6621L13.6722 34.3829L11.4299 33.5777L9.17589 32.8018C7.85639 32.3669 6.46931 31.9084 5.51127 30.9504C3.75978 29.1989 4.50328 26.4659 5.37609 24.3177L5.86392 23.1804L6.26653 22.2958C7.19811 20.3151 8.52055 18.0346 10.6247 17.4292C11.6444 17.1354 12.7024 17.1177 13.7692 17.1442L15.3649 17.1971C15.8939 17.2108 16.4199 17.1941 16.943 17.1471C24.0371 6.88209 33.2002 2.79429 40.8791 1.54826C44.2089 0.999616 47.6013 0.944165 50.9472 1.38369ZM41.8195 7.34935C35.3601 8.39848 27.5107 11.8574 21.3864 21.0704C20.6429 22.1871 19.388 22.719 18.1097 22.9218C17.3868 23.0393 16.6579 23.0687 15.9262 23.0687L13.731 23.0364C13.3665 23.0344 13.0012 23.0403 12.6348 23.054C11.7414 24.2413 11.1184 25.6519 10.6511 27.0536L15.0593 28.6553L16.8725 29.34C20.1874 30.6389 23.3965 32.2111 25.865 34.6797C30.0234 38.838 32.1363 44.2776 33.6645 49.8348C35.0045 49.3646 36.3505 48.7651 37.4907 47.9099L37.5084 46.8138L37.476 44.6215C37.476 43.8927 37.5054 43.1638 37.623 42.435C37.8228 41.1567 38.3577 39.9018 39.4744 39.1583C48.6874 33.034 52.1463 25.1846 53.1954 18.7252C53.7244 15.4632 53.6362 12.548 53.3394 10.3998C53.2251 9.50856 53.0354 8.62868 52.7722 7.76959C51.913 7.50741 51.0331 7.31865 50.142 7.20535C47.3756 6.84685 44.5715 6.89342 41.8195 7.34935ZM17.5337 38.8174C16.5051 40.0605 16.0261 41.6915 15.6411 43.3078L15.3238 44.6832L15.1621 45.3473L17.2016 44.8683C18.8179 44.4863 20.4519 44.0014 21.692 42.9728C22.2431 42.4214 22.5525 41.6736 22.5522 40.8941C22.5519 40.1145 22.242 39.367 21.6905 38.816C21.1391 38.2649 20.3914 37.9555 19.6118 37.9558C18.8323 37.9561 18.0847 38.266 17.5337 38.8174ZM34.1582 18.0405C34.7039 17.4946 35.3517 17.0616 36.0648 16.7661C36.7779 16.4705 37.5421 16.3184 38.314 16.3182C39.0859 16.3181 39.8502 16.47 40.5634 16.7653C41.2765 17.0605 41.9245 17.4933 42.4704 18.039C43.0163 18.5847 43.4494 19.2326 43.7449 19.9457C44.0404 20.6587 44.1926 21.423 44.1927 22.1949C44.1928 22.9667 44.0409 23.731 43.7457 24.4442C43.4504 25.1574 43.0176 25.8054 42.4719 26.3513C41.3694 27.4537 39.8742 28.0731 38.315 28.0731C36.7559 28.0731 35.2607 27.4537 34.1582 26.3513C33.0557 25.2488 32.4364 23.7535 32.4364 22.1944C32.4364 20.6353 33.0557 19.14 34.1582 18.0376V18.0405Z" fill="url(#paint0_linear_6_316)"/>
</g>
<defs>
<filter id="filter0_d_6_316" x="0.446777" y="0.0908203" width="63.0082" height="63.0059" filterUnits="userSpaceOnUse" color-interpolation-filters="sRGB">
<feFlood flood-opacity="0" result="BackgroundImageFix"/>
<feColorMatrix in="SourceAlpha" type="matrix" values="0 0 0 0 0 0 0 0 0 0 0 0 0 0 0 0 0 0 127 0" result="hardAlpha"/>
<feOffset dy="3"/>
<feGaussianBlur stdDeviation="2"/>
<feComposite in2="hardAlpha" operator="out"/>
<feColorMatrix type="matrix" values="0 0 0 0 0 0 0 0 0 0 0 0 0 0 0 0 0 0 0.34 0"/>
<feBlend mode="normal" in2="BackgroundImageFix" result="effect1_dropShadow_6_316"/>
<feBlend mode="normal" in="SourceGraphic" in2="effect1_dropShadow_6_316" result="shape"/>
</filter>
<linearGradient id="paint0_linear_6_316" x1="-16" y1="-4" x2="67.1315" y2="-27.0398" gradientUnits="userSpaceOnUse">
<stop stop-color="#EE2C81"/>
<stop offset="0.427885" stop-color="#FE0FD0"/>
<stop offset="0.802885" stop-color="#58B9E3"/>
<stop offset="1" stop-color="#F79FC5"/>
</linearGradient>
</defs>
</svg>
