<svg width="71" height="52" viewBox="0 0 71 52" fill="none" xmlns="http://www.w3.org/2000/svg">
<g filter="url(#filter0_d_6_346)">
<path d="M35.3345 1.15918C29.9089 1.15918 25.5107 6.2942 25.5107 12.6286C25.5107 17.0217 27.6262 20.8371 30.7327 22.7636L27.1303 24.4331L17.5439 28.8792C16.6178 29.3423 16.1556 30.1276 16.1556 31.239V41.7968C16.2318 43.1168 17.0238 44.3471 18.3079 44.3679H52.4129C53.8789 44.2405 54.6206 43.0596 54.635 41.7968V31.239C54.635 30.1276 54.1728 29.3423 53.2467 28.8792L44.0074 24.4331L40.1676 22.614C43.1467 20.6441 45.1583 16.9112 45.1583 12.6286C45.1583 6.29421 40.76 1.15918 35.3345 1.15918ZM19.4887 5.19244C17.1539 5.28111 15.3035 6.29142 13.8976 7.90123C12.3426 9.83942 11.5845 12.1406 11.5698 14.4298C11.6653 17.8149 13.1799 21.0195 15.8763 22.6957L5.11106 27.6984C4.37012 27.9762 4 28.6244 4 29.6432V38.1166C4.05785 39.2404 4.64134 40.1848 5.73539 40.201H12.8903V31.239C13.0087 28.8429 14.1339 26.9062 16.1556 25.9611L23.3086 22.5582C23.8642 22.234 24.3969 21.7934 24.9063 21.2377C21.957 16.6872 21.5475 11.2369 23.4482 6.44315C22.212 5.68657 20.8227 5.20037 19.4887 5.19244ZM51.4395 5.19244C49.9126 5.22441 48.5016 5.78669 47.3424 6.58075C49.1913 11.4179 48.6813 16.8716 45.9521 21.0981C46.5541 21.7926 47.1808 22.3253 47.8292 22.6958L54.7048 25.9611C56.7994 27.1098 57.8795 29.0637 57.9003 31.239V40.2011H65.2626C66.4734 40.0966 66.9895 39.1308 67 38.1167V29.6433C67 28.7171 66.6299 28.0689 65.8889 27.6984L55.2613 22.626C58.0175 20.5938 59.4014 17.5482 59.4282 14.4298C59.3549 11.9617 58.6009 9.66995 57.1004 7.90123C55.5324 6.20028 53.5876 5.21045 51.4395 5.19244Z" fill="url(#paint0_linear_6_346)"/>
</g>
<defs>
<filter id="filter0_d_6_346" x="0" y="0.15918" width="71" height="51.209" filterUnits="userSpaceOnUse" color-interpolation-filters="sRGB">
<feFlood flood-opacity="0" result="BackgroundImageFix"/>
<feColorMatrix in="SourceAlpha" type="matrix" values="0 0 0 0 0 0 0 0 0 0 0 0 0 0 0 0 0 0 127 0" result="hardAlpha"/>
<feOffset dy="3"/>
<feGaussianBlur stdDeviation="2"/>
<feComposite in2="hardAlpha" operator="out"/>
<feColorMatrix type="matrix" values="0 0 0 0 0 0 0 0 0 0 0 0 0 0 0 0 0 0 0.34 0"/>
<feBlend mode="normal" in2="BackgroundImageFix" result="effect1_dropShadow_6_346"/>
<feBlend mode="normal" in="SourceGraphic" in2="effect1_dropShadow_6_346" result="shape"/>
</filter>
<linearGradient id="paint0_linear_6_346" x1="-27" y1="-25" x2="101.243" y2="-15.7194" gradientUnits="userSpaceOnUse">
<stop stop-color="#EE2C81"/>
<stop offset="0.427885" stop-color="#FE0FD0"/>
<stop offset="0.802885" stop-color="#58B9E3"/>
<stop offset="1" stop-color="#F79FC5"/>
</linearGradient>
</defs>
</svg>
