<svg width="63" height="63" viewBox="0 0 63 63" fill="none" xmlns="http://www.w3.org/2000/svg">
<g filter="url(#filter0_d_6_339)">
<path d="M34.25 23.737C35.2985 24.3424 36.118 25.2768 36.5813 26.3954C37.0447 27.514 37.1259 28.7542 36.8126 29.9236C36.4992 31.0931 35.8087 32.1265 34.8482 32.8636C33.8876 33.6006 32.7107 34.0001 31.5 34.0001C30.2893 34.0001 29.1123 33.6006 28.1518 32.8636C27.1913 32.1265 26.5008 31.0931 26.1874 29.9236C25.874 28.7542 25.9553 27.514 26.4187 26.3954C26.882 25.2768 27.7015 24.3424 28.75 23.737V17.8465C26.1637 18.5223 23.9117 20.1163 22.4145 22.3309C20.9174 24.5454 20.2775 27.2292 20.6143 29.8811C20.9511 32.533 22.2415 34.9716 24.2447 36.7417C26.2479 38.5117 28.8268 39.4922 31.5 39.5C33.5852 39.5003 35.6275 38.9079 37.3889 37.7919C39.1503 36.6759 40.5582 35.0823 41.4485 33.1967C42.3388 31.3112 42.6749 29.2114 42.4175 27.1422C42.1601 25.0729 41.3199 23.1195 39.9947 21.5095C39.5456 20.9453 39.336 20.2271 39.4113 19.5099C39.4865 18.7926 39.8405 18.1336 40.397 17.6748C40.9535 17.2161 41.6679 16.9943 42.3864 17.0572C43.1048 17.1202 43.7698 17.4629 44.238 18.0115C46.5453 20.8146 47.8637 24.3005 47.9889 27.9289C48.114 31.5574 47.0389 35.1258 44.9302 38.0812C42.8215 41.0367 39.7968 43.2141 36.325 44.276C32.8532 45.338 29.128 45.2253 25.7268 43.9552C22.3256 42.6852 19.4382 40.3288 17.5121 37.2513C15.586 34.1737 14.7287 30.5468 15.0731 26.9325C15.4175 23.3183 16.9443 19.9186 19.417 17.2601C21.8897 14.6017 25.1701 12.8331 28.75 12.2283V6.6705C23.2025 7.37638 18.1318 10.1681 14.5688 14.4783C11.0057 18.7886 9.21752 24.2938 9.56771 29.8751C9.91789 35.4564 12.3802 40.6949 16.454 44.526C20.5279 48.357 25.9077 50.4931 31.5 50.5C35.9322 50.4999 40.261 49.1611 43.9193 46.659C47.5777 44.1569 50.395 40.6082 52.0022 36.4777C53.6094 32.3472 53.9315 27.8275 52.9264 23.5108C51.9213 19.1941 49.6357 15.2817 46.3692 12.286C45.8321 11.7926 45.5129 11.106 45.482 10.3773C45.4667 10.0165 45.5225 9.65616 45.6465 9.31694C45.7704 8.97772 45.9599 8.66623 46.2042 8.40025C46.4485 8.13427 46.7428 7.91902 47.0703 7.76678C47.3978 7.61455 47.7521 7.52831 48.1129 7.51298C48.8417 7.48204 49.5528 7.74185 50.09 8.23525C52.9016 10.8086 55.1461 13.9397 56.6802 17.4288C58.2143 20.9179 59.0043 24.6885 59 28.5C59 43.6882 46.6882 56 31.5 56C16.3117 56 4 43.6882 4 28.5C4 13.3118 16.3117 1 31.5 1C32.2293 1 32.9288 1.28973 33.4445 1.80546C33.9603 2.32118 34.25 3.02065 34.25 3.75V23.737Z" fill="url(#paint0_linear_6_339)"/>
</g>
<defs>
<filter id="filter0_d_6_339" x="0" y="0" width="63" height="63" filterUnits="userSpaceOnUse" color-interpolation-filters="sRGB">
<feFlood flood-opacity="0" result="BackgroundImageFix"/>
<feColorMatrix in="SourceAlpha" type="matrix" values="0 0 0 0 0 0 0 0 0 0 0 0 0 0 0 0 0 0 127 0" result="hardAlpha"/>
<feOffset dy="3"/>
<feGaussianBlur stdDeviation="2"/>
<feComposite in2="hardAlpha" operator="out"/>
<feColorMatrix type="matrix" values="0 0 0 0 0 0 0 0 0 0 0 0 0 0 0 0 0 0 0.34 0"/>
<feBlend mode="normal" in2="BackgroundImageFix" result="effect1_dropShadow_6_339"/>
<feBlend mode="normal" in="SourceGraphic" in2="effect1_dropShadow_6_339" result="shape"/>
</filter>
<linearGradient id="paint0_linear_6_339" x1="-13" y1="-6" x2="82.7192" y2="-10.6195" gradientUnits="userSpaceOnUse">
<stop stop-color="#EE2C81"/>
<stop offset="0.427885" stop-color="#FE0FD0"/>
<stop offset="0.802885" stop-color="#58B9E3"/>
<stop offset="1" stop-color="#F79FC5"/>
</linearGradient>
</defs>
</svg>
