<svg width="57" height="57" viewBox="0 0 57 57" fill="none" xmlns="http://www.w3.org/2000/svg">
<path d="M37.6577 1.0069H19.3422C17.802 0.932128 16.2944 1.46775 15.1466 2.49754C13.9988 3.52733 13.3034 4.9682 13.2113 6.50749V24.5762C13.2684 27.5483 14.1361 30.4484 15.7206 32.9635C17.3051 35.4786 19.5464 37.5133 22.2025 38.848C24.1422 39.8769 26.3044 40.4148 28.5 40.4148C30.6956 40.4148 32.8578 39.8769 34.7974 38.848C37.4536 37.5133 39.6948 35.4786 41.2794 32.9635C42.8639 30.4484 43.7315 27.5483 43.7887 24.5762V6.50749C43.6965 4.9682 43.0011 3.52733 41.8533 2.49754C40.7055 1.46775 39.198 0.932128 37.6577 1.0069Z" fill="url(#paint0_linear_6_324)" stroke="white" stroke-width="2" stroke-linecap="round"/>
<path d="M43.7889 6.50761H49.8961C51.4318 6.44008 52.9325 6.97897 54.0745 8.00801C55.2164 9.03705 55.9081 10.4738 56.0002 12.0082C55.9916 15.4566 55.1012 18.8456 53.4135 21.8528C51.6471 24.9622 49.1805 27.6172 46.2092 29.6072L43.7889 31.2573L41.4252 32.6875M13.2116 6.50761H7.10442C5.5687 6.44008 4.06798 6.97897 2.92602 8.00801C1.78406 9.03705 1.0924 10.4738 1.00024 12.0082C1.00916 15.4572 1.89818 18.8468 3.58701 21.8528C5.35334 24.9622 7.82001 27.6172 10.7913 29.6072L13.2116 31.2573L15.5753 32.6875M22.3961 47.7562V38.9284V47.7562ZM34.6044 47.7562V38.9284V47.7562ZM19.0154 47.7562H37.9851C38.7474 47.7554 39.5025 47.905 40.207 48.1964C40.9115 48.4877 41.5517 48.9152 42.0908 49.4543C42.6299 49.9934 43.0573 50.6335 43.3487 51.3381C43.6401 52.0426 43.7897 52.7976 43.7889 53.56V54.5501C43.7889 54.9365 43.6354 55.3071 43.3622 55.5803C43.089 55.8536 42.7184 56.0071 42.332 56.0071H14.6685C14.2821 56.0071 13.9115 55.8536 13.6383 55.5803C13.3651 55.3071 13.2116 54.9365 13.2116 54.5501V53.56C13.2108 52.7979 13.3603 52.0431 13.6515 51.3387C13.9427 50.6344 14.3699 49.9944 14.9087 49.4554C15.4475 48.9163 16.0872 48.4888 16.7914 48.1972C17.4956 47.9056 18.2503 47.7558 19.0125 47.7562H19.0154Z" fill="url(#paint1_linear_6_324)"/>
<path d="M43.7889 6.50761H49.8961C51.4318 6.44008 52.9325 6.97897 54.0745 8.00801C55.2164 9.03705 55.9081 10.4738 56.0002 12.0082C55.9916 15.4566 55.1012 18.8456 53.4135 21.8528C51.6471 24.9622 49.1805 27.6172 46.2092 29.6072L43.7889 31.2573L41.4252 32.6875M13.2116 6.50761H7.10442C5.5687 6.44008 4.06798 6.97897 2.92602 8.00801C1.78406 9.03705 1.0924 10.4738 1.00024 12.0082C1.00916 15.4572 1.89818 18.8468 3.58701 21.8528C5.35334 24.9622 7.82001 27.6172 10.7913 29.6072L13.2116 31.2573L15.5753 32.6875M22.3961 47.7562V38.9284M34.6044 47.7562V38.9284M19.0154 47.7562H37.985C38.7474 47.7554 39.5025 47.905 40.207 48.1964C40.9115 48.4877 41.5517 48.9152 42.0908 49.4543C42.6299 49.9934 43.0573 50.6335 43.3487 51.3381C43.6401 52.0426 43.7897 52.7976 43.7889 53.56V54.5501C43.7889 54.9365 43.6354 55.3071 43.3622 55.5803C43.089 55.8536 42.7184 56.0071 42.332 56.0071H14.6685C14.2821 56.0071 13.9115 55.8536 13.6383 55.5803C13.3651 55.3071 13.2116 54.9365 13.2116 54.5501V53.56C13.2108 52.7979 13.3603 52.0431 13.6515 51.3387C13.9427 50.6344 14.3699 49.9944 14.9087 49.4554C15.4475 48.9163 16.0872 48.4888 16.7914 48.1972C17.4956 47.9056 18.2503 47.7558 19.0125 47.7562H19.0154Z" stroke="white" stroke-width="2" stroke-linecap="round"/>
<path d="M28.925 23.4732L32.4335 25.3166C32.5819 25.3938 32.7488 25.428 32.9156 25.4154C33.0823 25.4028 33.2422 25.3439 33.3773 25.2453C33.5123 25.1467 33.6172 25.0123 33.68 24.8574C33.7428 24.7024 33.7611 24.533 33.7329 24.3682L33.0609 20.4642C33.0355 20.3204 33.0458 20.1725 33.0909 20.0335C33.136 19.8946 33.2145 19.7689 33.3196 19.6674L36.1591 16.9022C36.2811 16.7865 36.368 16.6386 36.4096 16.4757C36.4513 16.3127 36.446 16.1413 36.3944 15.9812C36.3428 15.8211 36.247 15.6789 36.118 15.5709C35.989 15.4629 35.8322 15.3936 35.6655 15.371L31.7437 14.806C31.6008 14.7846 31.4653 14.7287 31.3487 14.6432C31.2322 14.5578 31.1382 14.4453 31.0747 14.3154L29.2818 10.7326C29.2078 10.5821 29.0931 10.4553 28.9507 10.3666C28.8082 10.278 28.6438 10.231 28.4761 10.231C28.3083 10.231 28.1439 10.278 28.0015 10.3666C27.8591 10.4553 27.7443 10.5821 27.6703 10.7326L25.8804 14.3154C25.8167 14.4457 25.7222 14.5584 25.6051 14.6439C25.488 14.7294 25.3519 14.785 25.2084 14.806L21.3431 15.371C21.1761 15.3928 21.0187 15.4614 20.8889 15.5687C20.7591 15.6761 20.6622 15.8179 20.6094 15.9778C20.5566 16.1378 20.55 16.3094 20.5904 16.4729C20.6308 16.6364 20.7165 16.7852 20.8377 16.9022L23.6772 19.6674C23.7828 19.7686 23.8619 19.8942 23.9075 20.0331C23.9531 20.1721 23.9639 20.3201 23.9388 20.4642L23.2669 24.3682C23.2359 24.5333 23.2522 24.7039 23.314 24.8602C23.3757 25.0165 23.4803 25.1522 23.6158 25.2516C23.7513 25.351 23.9121 25.4102 24.0797 25.4222C24.2473 25.4342 24.4149 25.3987 24.5632 25.3196L28.0717 23.4762C28.2026 23.4049 28.3493 23.3675 28.4984 23.3675C28.6474 23.3675 28.7941 23.4049 28.925 23.4762" fill="url(#paint2_linear_6_324)"/>
<path d="M28.925 23.4732L32.4335 25.3166C32.5819 25.3938 32.7488 25.428 32.9156 25.4154C33.0823 25.4028 33.2422 25.3439 33.3773 25.2453C33.5123 25.1467 33.6172 25.0123 33.68 24.8574C33.7428 24.7024 33.7611 24.533 33.7329 24.3682L33.0609 20.4642C33.0355 20.3204 33.0458 20.1725 33.0909 20.0335C33.136 19.8946 33.2145 19.7689 33.3196 19.6674L36.1591 16.9022C36.2811 16.7865 36.368 16.6386 36.4096 16.4757C36.4513 16.3127 36.446 16.1413 36.3944 15.9812C36.3428 15.8211 36.247 15.6789 36.118 15.5709C35.989 15.4629 35.8322 15.3936 35.6655 15.371L31.7437 14.806C31.6008 14.7846 31.4653 14.7287 31.3487 14.6432C31.2322 14.5578 31.1382 14.4453 31.0747 14.3154L29.2818 10.7326C29.2078 10.5821 29.0931 10.4553 28.9507 10.3666C28.8082 10.278 28.6438 10.231 28.4761 10.231C28.3083 10.231 28.1439 10.278 28.0015 10.3666C27.8591 10.4553 27.7443 10.5821 27.6703 10.7326L25.8804 14.3154C25.8167 14.4457 25.7222 14.5584 25.6051 14.6439C25.488 14.7294 25.3519 14.785 25.2084 14.806L21.3431 15.371C21.1761 15.3928 21.0187 15.4614 20.8889 15.5687C20.7591 15.6761 20.6622 15.8179 20.6094 15.9778C20.5566 16.1378 20.55 16.3094 20.5904 16.4729C20.6308 16.6364 20.7165 16.7852 20.8377 16.9022L23.6772 19.6674C23.7828 19.7686 23.8619 19.8942 23.9075 20.0331C23.9531 20.1721 23.9639 20.3201 23.9388 20.4642L23.2669 24.3682C23.2359 24.5333 23.2522 24.7039 23.314 24.8602C23.3757 25.0165 23.4803 25.1522 23.6158 25.2516C23.7513 25.351 23.9121 25.4102 24.0797 25.4222C24.2473 25.4342 24.4149 25.3987 24.5632 25.3196L28.0717 23.4762C28.2026 23.4049 28.3493 23.3675 28.4984 23.3675C28.6474 23.3675 28.7941 23.4049 28.925 23.4762" stroke="white" stroke-width="2" stroke-linecap="round" stroke-linejoin="round"/>
<defs>
<linearGradient id="paint0_linear_6_324" x1="0.424409" y1="3.14963" x2="61.8727" y2="-8.56171" gradientUnits="userSpaceOnUse">
<stop stop-color="#EE2C81"/>
<stop offset="0.427885" stop-color="#FE0FD0"/>
<stop offset="0.802885" stop-color="#58B9E3"/>
<stop offset="1" stop-color="#F79FC5"/>
</linearGradient>
<linearGradient id="paint1_linear_6_324" x1="-21.9998" y1="9.20189" x2="84.6016" y2="-19.894" gradientUnits="userSpaceOnUse">
<stop stop-color="#EE2C81"/>
<stop offset="0.427885" stop-color="#FE0FD0"/>
<stop offset="0.802885" stop-color="#58B9E3"/>
<stop offset="1" stop-color="#F79FC5"/>
</linearGradient>
<linearGradient id="paint2_linear_6_324" x1="13.9265" y1="11.0596" x2="44.9407" y2="3.09947" gradientUnits="userSpaceOnUse">
<stop stop-color="#EE2C81"/>
<stop offset="0.427885" stop-color="#FE0FD0"/>
<stop offset="0.802885" stop-color="#58B9E3"/>
<stop offset="1" stop-color="#F79FC5"/>
</linearGradient>
</defs>
</svg>
