<svg width="137" height="24" viewBox="0 0 137 24" fill="none" xmlns="http://www.w3.org/2000/svg">
<path d="M24.0322 0H0.0322266V24H24.0322V0Z" fill="#219653"/>
<path d="M12.0323 15.7251L15.6823 14.8001L17.2073 19.5001L12.0323 15.7251ZM20.4323 9.6501H14.0073L12.0323 3.6001L10.0573 9.6501H3.63232L8.83232 13.4001L6.85732 19.4501L12.0573 15.7001L15.2573 13.4001L20.4323 9.6501Z" fill="white"/>
<path d="M52.0322 0H28.0322V24H52.0322V0Z" fill="#219653"/>
<path d="M40.0323 15.7251L43.6823 14.8001L45.2073 19.5001L40.0323 15.7251ZM48.4323 9.6501H42.0073L40.0323 3.6001L38.0573 9.6501H31.6323L36.8323 13.4001L34.8573 19.4501L40.0573 15.7001L43.2573 13.4001L48.4323 9.6501Z" fill="white"/>
<path d="M80.0322 0H56.0322V24H80.0322V0Z" fill="#219653"/>
<path d="M68.0323 15.7251L71.6823 14.8001L73.2073 19.5001L68.0323 15.7251ZM76.4323 9.6501H70.0073L68.0323 3.6001L66.0573 9.6501H59.6323L64.8323 13.4001L62.8573 19.4501L68.0573 15.7001L71.2573 13.4001L76.4323 9.6501Z" fill="white"/>
<path d="M108.032 0H84.0322V24H108.032V0Z" fill="#219653"/>
<path d="M96.0323 15.7251L99.6823 14.8001L101.207 19.5001L96.0323 15.7251ZM104.432 9.6501H98.0073L96.0323 3.6001L94.0573 9.6501H87.6323L92.8323 13.4001L90.8573 19.4501L96.0573 15.7001L99.2573 13.4001L104.432 9.6501Z" fill="white"/>
<path d="M136.032 0H112.032V24H136.032V0Z" fill="#219653"/>
<path d="M124.032 15.7251L127.682 14.8001L129.207 19.5001L124.032 15.7251ZM132.432 9.6501H126.007L124.032 3.6001L122.057 9.6501H115.632L120.832 13.4001L118.857 19.4501L124.057 15.7001L127.257 13.4001L132.432 9.6501Z" fill="white"/>
</svg>
